/* XPM */
static char *result[] = {
/* columns rows colors chars-per-pixel */
"30 30 6 1 ",
"  c seashell",
". c None",
"u c None",
"@ c lawn green",
"$ c lime",
"# c lime green",
/* pixels */
"..............................",
"..............................",
"..............................",
"..............................",
"..............................",
"..............................",
"..............................",
".........................uu...",
".......... ..............uu...",
".........  ........$$.....uu..",
"........   .........$$....uu..",
".......    ...@@....$$.....uu.",
"..         ....@@....$$....uu.",
".          ....@@....$$....uu.",
".          ....@@....$$....uu.",
".          ....@@....$$....uu.",
".          ....@@....$$....uu.",
"..         ....@@....$$....uu.",
".......    ...@@.....$$....uu.",
"........   .........$$....uu..",
".........  .........$$....uu..",
".......... ........$$....uu...",
".........................uu...",
"..............................",
"..............................",
"..............................",
"..............................",
"..............................",
"..............................",
".............................."
};              
