/* XPM */
static char *result[] = {
/* columns rows colors chars-per-pixel */
"30 30 3 1 ",
"  c seashell",
". c None",
"# c crimson",
/* pixels */
"..............................",
"..............................",
"..............................",
"..............................",
"..............................",
"..............................",
"..............................",
"..............................",
".......... ...................",
".........  ...................",
"........   .....##......##....",
".......    .....###....###....",
"..         ......###..###.....",
".          .......######......",
".          ........####.......",
".          ........####.......",
".          .......######......",
"..         ......###..###.....",
".......    .....###....###....",
"........   .....##......##....",
".........  ...................",
".......... ...................",
"..............................",
"..............................",
"..............................",
"..............................",
"..............................",
"..............................",
"..............................",
".............................."
};
