/* XPM */
static char *result[] = {
/* columns rows colors chars-per-pixel */
"30 30 6 1 ",
"  c white",
". c None",
"$ c black",
"# c black",
"& c gold",
"* c black",
/* pixels */
"..............................",
"..............................",
"..............................",
"..............................",
"..............................",
"..............................",
".....                    .....",
".....                    .....",
"....                      ....",
"....                      ....",
"....                      ....",
"....     ............     ....",
"....     .&..&..&..&.     ....",
"....     .&..&..&..&.     ....",
"....     ............     ....",
"....     ............     ....",
"....     ............     ....",
"....       ........       ....",
"....       ........       ....",
"....         ....   # $   ....",
"....         ....  ## $   ....",
"....                # $$  ....",
"....                # $   ....",
".....                    .....",
"..............................",
"..............................",
"..............................",
"..............................",
"..............................",
".............................."
};
