/* XPM */
static char *result[] = {
/* columns rows colors chars-per-pixel */
"24 24 5 1 ",
"  c white",
". c None",
"$ c white",
"# c white",
"& c gold",
/* pixels */
"........................",
"........................",
"........................",
"........................",
"........................",
".........      .........",
".......          .......",
".....              .....",
"....                ....",
"...                  ...",
"...                  ...",
"....                ....",
".....              .....",
"......            ......",
".......          .......",
"........        ..$.#...",
".........      ..$$.#...",
"..........    ....$.##..",
"...........  .....$.#...",
"........................",
"........................",
"........................",
"........................",
"........................"
};
