/* XPM */
static char *d241a7c8d48e4920b5f1770aa48da7ccZj1AAw1XR0l2fjsi[] = {
/* columns rows colors chars-per-pixel */
"24 24 3 1 ",
"  c None",
". c None",
"X c #E3B017",
/* pixels */
"                        ",
"                        ",
"                        ",
"                        ",
"           XX           ",
"           XX           ",
"     XX    XX    XX     ",
"      XX        XX      ",
"       XX  XX  XX       ",
"          XXXX          ",
"         XX..XX         ",
"    XXX XX....XX XXX    ",
"    XXX XX....XX XXX    ",
"         XX..XX         ",
"          XXXX          ",
"       XX  XX  XX       ",
"      XX        XX      ",
"     XX    XX    XX     ",
"           XX           ",
"           XX           ",
"                        ",
"                        ",
"                        ",
"                        "
};
