/* XPM */
static char *a648f6b371994c77df98e24c531f5dd8aiZ1WZg2zMyjWGWC[] = {
/* columns rows colors chars-per-pixel */
"30 30 3 1 ",
"  c None",
". c white",
"# c orange",
/* pixels */
"                              ",
"                              ",
"                              ",
"                              ",
"                              ",
"                              ",
"                              ",
"  ........................    ",
" ..........................   ",
" ..                      ..   ",
" ..                      ..   ",
" ..  ############        ..   ",
" ..  ############        .. ..",
" ..  ############        .. ..",
" ..  ############        .. ..",
" ..  ############        .. ..",
" ..  ############        .. ..",
" ..  ############        ..   ",
" ..                      ..   ",
" ..                      ..   ",
" ..........................   ",
"  ........................    ",
"                              ",
"                              ",
"                              ",
"                              ",
"                              ",
"                              ",
"                              ",
"                              "
};
